<svg width="66" height="58" viewBox="0 0 66 58" fill="none" xmlns="http://www.w3.org/2000/svg">
<g filter="url(#filter0_d_77_3)">
<path d="M54.5206 12.2607L20.3772 2.01878C15.4486 1.83936 13.414 2.90448 11.1156 7.00131L6.00099 24.025C5.9636 28.7443 6.97295 30.834 11.1156 33.298L21.8977 36.4813L25.7682 47L34.4769 40.3566L44.9826 43.5399C49.9612 43.9216 52.0646 43.0198 54.5206 39.3878L59.7735 22.2257C60.5178 17.2332 59.5917 14.9627 54.5206 12.2607Z" stroke="#007BFF" stroke-width="3" shape-rendering="crispEdges"/>
</g>
<g filter="url(#filter1_d_77_3)">
<path d="M12.8848 19.832L14.607 13.8949L18.5402 15.0275L18.24 16.0625L15.5627 15.2915L15.1524 16.7062L17.5685 17.402L17.2683 18.4369L14.8522 17.7411L14.1408 20.1937L12.8848 19.832ZM23.0542 16.3274L24.3102 16.6891L23.1918 20.5447C23.0662 20.9777 22.8529 21.3267 22.5518 21.5918C22.2526 21.8574 21.892 22.0279 21.47 22.1032C21.0485 22.1766 20.5922 22.1426 20.101 22.0011C19.6079 21.8591 19.2028 21.6451 18.8856 21.359C18.5689 21.071 18.3552 20.7351 18.2444 20.3514C18.1336 19.9677 18.141 19.5593 18.2666 19.1264L19.385 15.2708L20.6409 15.6325L19.5536 19.3808C19.488 19.607 19.4791 19.8222 19.5267 20.0264C19.5762 20.2313 19.6773 20.4101 19.8299 20.5629C19.9825 20.7158 20.1797 20.827 20.4214 20.8966C20.665 20.9668 20.8914 20.9775 21.1004 20.9288C21.3113 20.8806 21.4916 20.7828 21.6412 20.6354C21.7928 20.4884 21.9013 20.3019 21.9669 20.0758L23.0542 16.3274ZM30.3122 18.4175L28.5901 24.3546L27.5052 24.0422L26.0047 19.5612L25.9612 19.5487L24.8773 23.2855L23.6213 22.9238L25.3435 16.9867L26.4457 17.3041L27.9268 21.7764L27.979 21.7914L29.0621 18.0575L30.3122 18.4175ZM37.8788 22.8487L36.6084 22.4828C36.6328 22.3118 36.6277 22.1523 36.5932 22.0041C36.5592 21.854 36.4993 21.7174 36.4135 21.5943C36.3277 21.4712 36.2183 21.3643 36.0854 21.2736C35.9544 21.1836 35.8038 21.114 35.6336 21.065C35.3261 20.9765 35.0362 20.9757 34.7637 21.0627C34.4918 21.1477 34.251 21.3171 34.0412 21.5708C33.8319 21.8225 33.6676 22.1543 33.5482 22.5659C33.4255 22.9892 33.3851 23.3629 33.4273 23.687C33.4714 24.0117 33.5862 24.2804 33.7718 24.493C33.9574 24.7056 34.2 24.855 34.4998 24.9413C34.668 24.9898 34.8301 25.0124 34.9861 25.0091C35.144 25.0065 35.2914 24.9787 35.4282 24.926C35.5656 24.8713 35.689 24.7927 35.7983 24.6902C35.9096 24.5882 36.0028 24.4622 36.0777 24.3121L37.3465 24.6837C37.2346 24.9467 37.0762 25.1859 36.8712 25.4012C36.6688 25.6152 36.4285 25.7899 36.1503 25.9255C35.8746 26.0597 35.5682 26.1411 35.2309 26.1696C34.8962 26.1968 34.5383 26.1555 34.1574 26.0458C33.6276 25.8932 33.1886 25.637 32.8404 25.277C32.4941 24.9177 32.266 24.4761 32.1561 23.9523C32.048 23.4291 32.0876 22.8447 32.2749 22.1992C32.4627 21.5518 32.7443 21.0361 33.1197 20.652C33.495 20.268 33.9261 20.0173 34.4127 19.8999C34.8999 19.7805 35.4045 19.796 35.9267 19.9464C36.2709 20.0455 36.5759 20.1857 36.8418 20.367C37.1096 20.5488 37.3307 20.7653 37.5051 21.0166C37.68 21.2659 37.8003 21.5445 37.8661 21.8524C37.9337 22.1609 37.938 22.493 37.8788 22.8487ZM37.6602 26.9665L39.3824 21.0295L40.6383 21.3911L39.9278 23.8408L42.4774 24.575L43.1879 22.1253L44.441 22.4862L42.7188 28.4233L41.4658 28.0624L42.1772 25.6099L39.6276 24.8757L38.9162 27.3282L37.6602 26.9665ZM44.7783 29.0163L43.4324 28.6288L47.2053 23.2822L48.8238 23.7483L49.1495 30.2751L47.8036 29.8875L47.6442 24.8787L47.5978 24.8653L44.7783 29.0163ZM45.3711 26.6584L48.5501 27.5739L48.2659 28.5538L45.0868 27.6383L45.3711 26.6584ZM50.3343 25.3047L50.6345 24.2697L55.5133 25.6747L55.2131 26.7096L53.3944 26.1859L51.9725 31.088L50.731 30.7305L52.153 25.8284L50.3343 25.3047Z" fill="#007BFF"/>
</g>
<defs>
<filter id="filter0_d_77_3" x="0.5" y="0.499756" width="65.0002" height="56.9253" filterUnits="userSpaceOnUse" color-interpolation-filters="sRGB">
<feFlood flood-opacity="0" result="BackgroundImageFix"/>
<feColorMatrix in="SourceAlpha" type="matrix" values="0 0 0 0 0 0 0 0 0 0 0 0 0 0 0 0 0 0 127 0" result="hardAlpha"/>
<feOffset dy="4"/>
<feGaussianBlur stdDeviation="2"/>
<feComposite in2="hardAlpha" operator="out"/>
<feColorMatrix type="matrix" values="0 0 0 0 0 0 0 0 0 0 0 0 0 0 0 0 0 0 0.25 0"/>
<feBlend mode="normal" in2="BackgroundImageFix" result="effect1_dropShadow_77_3"/>
<feBlend mode="normal" in="SourceGraphic" in2="effect1_dropShadow_77_3" result="shape"/>
</filter>
<filter id="filter1_d_77_3" x="8.86035" y="13.8137" width="50.6765" height="25.8821" filterUnits="userSpaceOnUse" color-interpolation-filters="sRGB">
<feFlood flood-opacity="0" result="BackgroundImageFix"/>
<feColorMatrix in="SourceAlpha" type="matrix" values="0 0 0 0 0 0 0 0 0 0 0 0 0 0 0 0 0 0 127 0" result="hardAlpha"/>
<feOffset dy="4"/>
<feGaussianBlur stdDeviation="2"/>
<feComposite in2="hardAlpha" operator="out"/>
<feColorMatrix type="matrix" values="0 0 0 0 0 0 0 0 0 0 0 0 0 0 0 0 0 0 0.25 0"/>
<feBlend mode="normal" in2="BackgroundImageFix" result="effect1_dropShadow_77_3"/>
<feBlend mode="normal" in="SourceGraphic" in2="effect1_dropShadow_77_3" result="shape"/>
</filter>
</defs>
</svg>
